SplineFontDB: 3.0
FontName: vipricons
FullName: vipricons
FamilyName: vipricons
Weight: Regular
ItalicAngle: 0
UnderlinePosition: 0
UnderlineWidth: 0
Ascent: 480
Descent: 32
InvalidEm: 0
LayerCount: 2
Layer: 0 0 "Back" 1
Layer: 1 0 "Fore" 0
XUID: [1021 92 753518580 4358]
OS2Version: 0
OS2_WeightWidthSlopeOnly: 0
OS2_UseTypoMetrics: 0
CreationTime: 1448247069
ModificationTime: 1448247069
PfmFamily: 17
TTFWeight: 400
TTFWidth: 5
LineGap: 46
VLineGap: 46
Panose: 2 0 5 9 0 0 0 0 0 0
OS2TypoAscent: 0
OS2TypoAOffset: 1
OS2TypoDescent: 0
OS2TypoDOffset: 1
OS2TypoLinegap: 46
OS2WinAscent: 0
OS2WinAOffset: 1
OS2WinDescent: 0
OS2WinDOffset: 1
HheadAscent: 0
HheadAOffset: 1
HheadDescent: 0
HheadDOffset: 1
OS2Vendor: 'PfEd'
DEI: 91125
Encoding: Custom
UnicodeInterp: none
NameList: AGL For New Fonts
DisplaySize: -48
AntiAlias: 1
FitToEm: 0
WinInfo: 0 16 4
BeginChars: 33 32

StartChar: A
Encoding: 1 65 0
Width: 512
LayerCount: 2
Fore
SplineSet
17 207 m 1
 17 237 l 2
 17 242 18 246 18 249 c 2
 21 258 l 2
 22 260 24 263 27 265 c 0
 30 267 32 269 33 270 c 0
 35 271 38 273 41 275 c 0
 45 277 48 278 49 278 c 0
 50 278 53 279 57 281 c 0
 62 282 64 283 65 283 c 0
 75 286 83 289 90 292 c 0
 98 295 102 299 105 303 c 0
 108 306 110 310 112 313 c 0
 113 317 114 320 113 321 c 2
 113 324 l 2
 113 332 112 338 110 342 c 0
 109 347 106 351 103 354 c 0
 101 357 98 364 96 375 c 0
 94 387 93 401 93 419 c 0
 93 431 95 441 100 449 c 0
 105 457 112 463 119 466 c 0
 127 469 133 471 138 472 c 0
 143 473 148 473 152 473 c 2
 153 473 l 2
 183 473 202 462 210 440 c 1
 188 431 177 414 177 389 c 0
 177 356 179 332 185 317 c 0
 190 301 193 293 193 291 c 2
 193 284 l 2
 193 280 189 274 181 268 c 0
 173 261 161 256 146 252 c 2
 138 249 l 2
 133 248 129 246 128 246 c 0
 127 245 124 244 120 242 c 0
 115 240 113 238 111 236 c 0
 110 235 108 232 106 229 c 0
 103 227 102 223 101 219 c 0
 100 215 99 211 99 207 c 1
 17 207 l 1
232 164 m 1
 119 164 l 1
 119 195 l 2
 119 199 119 203 120 206 c 2
 123 215 l 2
 125 217 127 220 129 222 c 0
 132 224 134 226 135 227 c 0
 137 228 139 230 143 232 c 0
 147 234 149 235 150 235 c 0
 152 235 155 236 159 238 c 0
 163 239 166 240 166 240 c 2
 177 243 186 246 193 249 c 0
 200 252 205 256 207 260 c 0
 210 263 212 267 214 270 c 0
 215 274 216 277 215 278 c 0
 214 280 214 281 215 281 c 1
 215 289 214 295 212 300 c 0
 210 305 208 309 205 312 c 0
 202 315 200 322 198 333 c 0
 195 344 194 358 194 376 c 0
 194 388 197 398 202 406 c 0
 207 414 213 420 221 423 c 0
 229 426 235 428 240 429 c 0
 245 430 250 431 254 431 c 2
 255 431 l 2
 262 431 269 430 276 429 c 0
 283 427 291 422 301 413 c 0
 310 404 315 392 315 376 c 0
 315 358 314 344 312 333 c 0
 309 322 307 315 304 312 c 0
 301 309 299 305 297 300 c 0
 295 295 294 289 294 281 c 2
 296 271 l 1
 295 272 l 1
 247 223 l 1
 276 193 l 1
 275 191 l 1
 232 187 l 1
 232 164 l 1
453 131 m 1
 442 109 l 1
 461 86 l 1
 433 58 l 1
 411 78 l 1
 391 69 l 1
 389 39 l 1
 349 39 l 1
 347 69 l 1
 330 78 l 1
 302 58 l 1
 276 86 l 1
 299 109 l 1
 291 131 l 1
 258 133 l 1
 258 169 l 1
 291 172 l 1
 299 192 l 1
 276 217 l 1
 302 242 l 1
 330 222 l 1
 347 234 l 1
 349 262 l 1
 389 262 l 1
 391 234 l 1
 411 222 l 1
 433 242 l 1
 461 217 l 1
 442 192 l 1
 453 172 l 1
 480 169 l 1
 480 133 l 1
 453 131 l 1
302 440 m 1
 310 462 329 473 359 473 c 2
 360 473 l 2
 364 473 369 473 374 472 c 0
 379 471 385 469 393 466 c 0
 401 463 407 457 412 449 c 0
 417 441 419 431 419 419 c 0
 419 401 418 387 416 376 c 0
 414 364 411 357 409 354 c 0
 406 351 403 347 402 342 c 0
 400 338 399 332 399 324 c 2
 399 316 l 2
 399 311 403 305 411 298 c 0
 420 291 432 286 448 283 c 2
 456 280 l 2
 461 278 465 277 466 277 c 0
 467 276 470 275 474 273 c 0
 479 271 482 269 483 267 c 0
 484 265 486 263 488 260 c 0
 491 257 493 254 494 250 c 0
 495 246 495 242 495 237 c 2
 495 207 l 1
 476 207 l 1
 491 226 l 1
 440 272 l 1
 413 249 l 1
 409 251 l 1
 406 288 l 1
 334 288 l 1
 332 267 l 1
 322 275 318 283 319 292 c 0
 319 293 322 301 327 317 c 0
 333 332 335 356 335 389 c 0
 335 414 324 431 302 440 c 1
414 151 m 0
 414 163 409 174 401 182 c 0
 392 191 381 195 369 195 c 0
 357 195 346 191 337 182 c 0
 329 174 324 163 324 151 c 0
 324 139 329 128 338 119 c 0
 347 110 357 106 369 106 c 0
 381 106 391 110 400 119 c 0
 409 128 414 139 414 151 c 0
EndSplineSet
EndChar

StartChar: y
Encoding: 2 121 1
Width: 512
LayerCount: 2
Fore
SplineSet
37 389 m 1
 37 99 l 1
 123 99 l 2
 154 99 188 90 224 72 c 1
 17 72 l 1
 17 389 l 1
 37 389 l 1
146 435 m 0
 170 432 189 428 201 424 c 0
 213 420 223 415 231 409 c 0
 239 404 243 400 244 398 c 0
 246 396 247 395 247 393 c 2
 247 82 l 1
 234 95 211 105 179 111 c 0
 147 118 121 120 100 119 c 0
 79 117 66 117 62 118 c 1
 62 440 l 1
 93 440 121 438 146 435 c 0
367 435 m 0
 343 432 324 428 312 424 c 0
 300 420 290 415 282 409 c 0
 274 404 270 400 269 398 c 0
 267 396 266 395 266 393 c 2
 266 82 l 1
 279 95 302 105 334 111 c 0
 366 118 392 120 413 119 c 0
 434 117 447 117 451 118 c 1
 451 440 l 1
 420 440 392 438 367 435 c 0
474 389 m 1
 474 99 l 1
 388 99 l 2
 357 99 324 90 288 72 c 1
 495 72 l 1
 495 389 l 1
 474 389 l 1
EndSplineSet
EndChar

StartChar: b
Encoding: 3 98 2
Width: 512
LayerCount: 2
Fore
SplineSet
333 413 m 1
 333 354 l 1
 332 347 l 2
 332 342 328 337 321 330 c 0
 315 322 305 316 294 310 c 1
 195 310 l 2
 191 310 187 307 183 303 c 0
 179 299 176 293 175 286 c 1
 172 286 l 2
 142 287 117 290 95 296 c 0
 74 301 59 306 49 312 c 0
 39 318 32 325 26 332 c 0
 21 339 18 344 18 347 c 0
 17 350 17 352 17 354 c 2
 17 408 l 1
 24 447 77 466 177 466 c 0
 220 466 256 461 286 450 c 0
 316 440 332 427 333 410 c 2
 333 413 l 1
115 199 m 0
 97 203 83 207 73 211 c 0
 62 215 53 220 45 226 c 0
 37 231 32 236 29 241 c 0
 25 245 23 250 21 254 c 0
 19 259 18 262 18 264 c 0
 17 266 17 267 17 268 c 2
 17 334 l 1
 23 294 75 271 173 267 c 1
 174 267 l 1
 174 194 l 1
 173 193 l 1
 152 194 132 196 115 199 c 0
174 101 m 1
 172 101 l 2
 144 102 120 104 99 108 c 0
 79 113 63 117 53 122 c 0
 43 126 35 131 29 138 c 0
 23 144 19 148 19 150 c 0
 18 152 17 154 17 155 c 2
 17 241 l 1
 23 201 75 178 173 174 c 1
 174 174 l 1
 174 101 l 1
271 386 m 0
 296 392 309 400 309 409 c 0
 309 418 296 425 271 432 c 0
 245 438 213 441 177 441 c 0
 140 441 108 438 82 432 c 0
 56 425 43 418 43 409 c 0
 43 400 56 392 82 386 c 0
 108 379 139 376 177 376 c 0
 213 376 245 379 271 386 c 0
495 231 m 2
 495 63 l 2
 495 52 489 46 478 46 c 2
 215 46 l 2
 204 46 199 52 199 63 c 2
 199 253 l 2
 199 262 201 269 206 274 c 0
 211 280 215 282 218 283 c 2
 225 283 l 1
 319 283 l 2
 327 283 334 281 339 276 c 0
 344 271 347 267 348 264 c 0
 349 261 350 259 350 257 c 2
 469 257 l 2
 484 257 493 248 495 231 c 2
320 310 m 1
 328 319 333 327 333 334 c 2
 333 310 l 1
 320 310 l 1
EndSplineSet
EndChar

StartChar: h
Encoding: 4 104 3
Width: 512
LayerCount: 2
Fore
SplineSet
256 337 m 0
 212 337 176 301 176 257 c 0
 176 214 212 178 256 178 c 0
 300 178 336 213 336 257 c 0
 336 301 300 337 256 337 c 0
256 192 m 0
 220 192 190 221 190 257 c 0
 190 294 220 323 256 323 c 0
 292 323 322 294 322 257 c 0
 322 221 292 192 256 192 c 0
495 220 m 1
 495 298 l 1
 435 304 l 1
 411 346 l 1
 453 399 l 1
 393 453 l 1
 346 411 l 1
 304 435 l 1
 298 495 l 1
 214 495 l 1
 208 435 l 1
 172 411 l 1
 113 453 l 1
 59 399 l 1
 107 346 l 1
 89 304 l 1
 17 298 l 1
 17 220 l 1
 89 214 l 1
 107 166 l 1
 59 119 l 1
 113 59 l 1
 172 101 l 1
 208 83 l 1
 214 17 l 1
 298 17 l 1
 304 83 l 1
 346 101 l 1
 393 59 l 1
 453 119 l 1
 411 166 l 1
 435 214 l 1
 495 220 l 1
393 162 m 1
 433 117 l 1
 395 80 l 1
 350 119 l 1
 289 92 l 1
 284 31 l 1
 228 31 l 1
 223 92 l 1
 169 118 l 1
 113 78 l 1
 78 118 l 1
 123 163 l 1
 98 228 l 1
 31 233 l 1
 31 287 l 1
 100 292 l 1
 124 349 l 1
 79 400 l 1
 114 435 l 1
 172 394 l 1
 223 425 l 1
 228 481 l 1
 284 481 l 1
 289 425 l 1
 351 393 l 1
 396 433 l 1
 433 400 l 1
 393 349 l 1
 425 289 l 1
 481 283 l 1
 481 235 l 1
 425 229 l 1
 393 162 l 1
EndSplineSet
EndChar

StartChar: c
Encoding: 5 99 4
Width: 512
LayerCount: 2
Fore
SplineSet
424 61 m 2
 407 43 l 1
 360 82 310 101 254 101 c 0
 198 101 150 82 110 42 c 1
 90 59 l 1
 41 107 17 164 17 231 c 0
 17 297 40 353 87 400 c 0
 133 446 190 470 256 470 c 0
 322 470 379 446 425 400 c 0
 472 353 495 297 495 231 c 0
 495 163 471 106 424 61 c 2
107 222 m 0
 107 229 105 234 101 239 c 0
 97 243 91 245 85 245 c 0
 78 245 73 243 69 239 c 0
 65 234 63 229 63 222 c 0
 63 216 65 211 69 207 c 0
 73 202 78 200 85 200 c 0
 91 200 97 202 101 207 c 0
 105 211 107 216 107 222 c 0
132 322 m 0
 132 328 130 334 126 338 c 0
 122 342 116 344 110 344 c 0
 103 344 98 342 94 338 c 0
 90 334 88 328 88 322 c 0
 88 315 90 310 94 306 c 0
 98 302 103 300 110 300 c 0
 116 300 122 302 126 306 c 0
 130 310 132 315 132 322 c 0
294 221 m 0
 294 231 290 240 283 247 c 0
 275 254 266 258 256 258 c 1
 145 389 l 1
 222 237 l 1
 220 230 218 225 218 221 c 0
 218 211 222 202 229 195 c 0
 237 187 246 183 256 183 c 0
 266 183 275 187 283 195 c 0
 290 202 294 211 294 221 c 0
182 393 m 0
 182 388 185 382 189 378 c 0
 193 373 198 371 205 371 c 0
 211 371 216 373 221 378 c 0
 225 382 227 388 227 393 c 0
 227 400 225 405 221 410 c 0
 216 414 211 417 205 417 c 0
 198 417 193 414 189 410 c 0
 185 405 182 400 182 393 c 0
349 389 m 0
 349 396 347 401 343 405 c 0
 338 410 333 412 327 412 c 0
 320 412 315 410 311 405 c 0
 306 401 304 396 304 389 c 0
 304 384 306 379 311 374 c 0
 315 369 320 367 327 367 c 0
 333 367 338 369 343 374 c 0
 347 379 349 384 349 389 c 0
402 300 m 0
 409 300 414 302 418 306 c 0
 422 310 424 315 424 322 c 0
 424 328 422 334 418 338 c 0
 414 342 409 344 402 344 c 0
 396 344 390 342 386 338 c 0
 382 334 380 328 380 322 c 0
 380 315 382 310 386 306 c 0
 390 302 396 300 402 300 c 0
410 205 m 0
 414 200 420 198 426 198 c 0
 433 198 438 200 442 205 c 0
 446 209 449 215 449 221 c 0
 449 227 446 232 442 237 c 0
 438 241 433 243 426 243 c 0
 420 243 415 241 410 237 c 0
 406 232 404 227 404 221 c 0
 404 215 406 209 410 205 c 0
EndSplineSet
EndChar

StartChar: B
Encoding: 6 66 5
Width: 512
LayerCount: 2
Fore
SplineSet
121 340 m 1
 121 346 136 491 257 495 c 1
 376 491 393 351 393 340 c 1
 375 340 l 1
 375 340 366 476 257 477 c 0
 149 476 138 340 138 340 c 1
 121 340 l 1
398 315 m 2
 114 315 l 2
 84 315 59 290 59 259 c 2
 59 73 l 2
 59 42 84 17 114 17 c 2
 398 17 l 2
 428 17 453 42 453 73 c 2
 453 259 l 2
 453 290 428 315 398 315 c 2
437 81 m 2
 437 53 416 32 388 32 c 2
 124 32 l 2
 96 32 76 53 76 81 c 2
 76 250 l 2
 76 279 96 301 124 301 c 2
 388 301 l 2
 416 301 437 279 437 250 c 2
 437 81 l 2
272 166 m 1
 272 107 l 1
 261 98 l 1
 250 106 l 1
 250 166 l 1
 237 171 228 183 228 197 c 0
 228 215 243 230 261 230 c 0
 279 230 294 215 294 197 c 0
 294 183 285 171 272 166 c 1
EndSplineSet
EndChar

StartChar: d
Encoding: 7 100 6
Width: 512
LayerCount: 2
Fore
SplineSet
495 246 m 1
 468 246 l 1
 255 459 l 1
 43 246 l 1
 17 246 l 1
 89 318 l 1
 89 436 l 1
 165 436 l 1
 165 394 l 1
 255 486 l 1
 495 246 l 1
422 246 m 1
 422 26 l 1
 300 26 l 1
 300 165 l 1
 208 165 l 1
 208 26 l 1
 89 26 l 1
 89 246 l 1
 254 413 l 1
 422 246 l 1
EndSplineSet
EndChar

StartChar: d1
Encoding: 8 67 7
Width: 512
LayerCount: 2
Fore
SplineSet
255 237 m 1
 357 234 369 100 370 82 c 1
 385 82 l 1
 385 91 375 249 255 252 c 1
 143 247 126 87 126 82 c 1
 141 82 l 1
 142 98 164 232 255 237 c 1
255 430 m 0
 207 430 168 391 168 343 c 0
 168 295 207 256 255 256 c 0
 303 256 342 295 342 343 c 0
 342 391 303 430 255 430 c 0
255 270 m 0
 215 270 182 303 182 343 c 0
 182 383 215 416 255 416 c 0
 295 416 328 383 328 343 c 0
 328 303 295 270 255 270 c 0
399 404 m 0
 379 404 361 394 349 379 c 1
 352 374 354 368 355 362 c 1
 363 378 380 389 399 389 c 0
 427 389 449 367 449 340 c 0
 449 312 427 290 399 290 c 0
 379 290 362 302 354 319 c 1
 352 313 350 308 347 303 c 1
 359 286 378 276 399 276 c 0
 435 276 463 304 463 340 c 0
 463 375 435 404 399 404 c 0
399 273 m 0
 369 271 349 255 334 234 c 1
 338 231 342 228 345 225 c 1
 357 242 374 256 399 257 c 0
 474 256 480 160 480 148 c 1
 495 148 l 1
 495 155 488 270 399 273 c 0
113 404 m 0
 133 404 151 394 163 379 c 1
 160 374 158 368 157 362 c 1
 149 378 132 389 113 389 c 0
 85 389 63 367 63 340 c 0
 63 312 85 290 113 290 c 0
 133 290 150 302 158 319 c 1
 160 313 162 308 165 303 c 1
 153 286 134 276 113 276 c 0
 77 276 49 304 49 340 c 0
 49 375 77 404 113 404 c 0
113 273 m 0
 143 271 163 255 178 234 c 1
 174 231 170 228 167 225 c 1
 155 242 138 256 113 257 c 0
 38 256 32 160 32 148 c 1
 17 148 l 1
 17 155 24 270 113 273 c 0
EndSplineSet
EndChar

StartChar: e
Encoding: 9 101 8
Width: 512
LayerCount: 2
Fore
SplineSet
488 394 m 0
 493 389 495 383 495 376 c 0
 495 373 495 370 494 368 c 2
 481 332 l 1
 419 141 l 1
 163 141 l 1
 80 430 l 1
 41 430 l 2
 35 430 29 432 24 437 c 0
 19 441 17 447 17 454 c 0
 17 461 19 467 24 472 c 0
 29 476 35 478 41 478 c 2
 105 478 l 2
 112 478 116 476 119 471 c 2
 202 189 l 1
 387 189 l 1
 447 382 l 2
 450 395 459 401 471 401 c 0
 477 401 483 399 488 394 c 0
202 123 m 0
 190 123 179 118 170 109 c 0
 162 101 157 90 157 78 c 0
 157 66 162 55 170 47 c 0
 179 38 190 33 202 33 c 0
 215 33 225 38 234 46 c 0
 242 54 246 65 246 78 c 0
 246 91 242 102 234 110 c 0
 225 118 215 123 202 123 c 0
216 381 m 0
 213 384 209 386 204 386 c 0
 199 386 194 384 191 381 c 0
 188 378 186 373 186 368 c 0
 186 364 188 360 192 357 c 0
 195 353 199 352 204 352 c 0
 208 352 212 353 216 357 c 0
 219 360 221 364 221 368 c 0
 221 373 220 378 216 381 c 0
234 324 m 0
 229 324 225 322 222 319 c 0
 218 316 216 311 216 306 c 0
 216 301 218 297 222 294 c 0
 225 290 229 289 234 289 c 0
 238 289 242 291 245 294 c 0
 249 298 250 302 250 306 c 0
 250 311 249 315 245 318 c 0
 242 322 238 324 234 324 c 0
264 261 m 0
 259 261 254 259 251 256 c 0
 248 252 246 248 246 243 c 0
 246 239 248 235 251 231 c 0
 254 228 259 226 264 226 c 0
 269 226 273 228 276 231 c 0
 280 235 281 239 281 243 c 0
 281 248 280 252 276 256 c 0
 273 259 269 261 264 261 c 0
277 381 m 0
 273 384 269 386 265 386 c 0
 260 386 256 384 253 381 c 0
 249 378 247 373 247 368 c 0
 247 364 249 360 253 357 c 0
 256 353 260 352 265 352 c 0
 269 352 273 353 277 357 c 0
 280 360 282 364 282 368 c 0
 282 373 280 378 277 381 c 0
300 324 m 0
 295 324 291 322 287 319 c 0
 284 316 282 311 282 306 c 0
 282 301 284 297 287 294 c 0
 291 290 295 289 300 289 c 0
 304 289 308 290 312 294 c 0
 315 297 317 301 317 306 c 0
 317 311 315 316 312 319 c 0
 308 322 304 324 300 324 c 0
341 381 m 0
 337 384 333 386 329 386 c 0
 324 386 320 384 316 381 c 0
 313 378 311 373 311 368 c 0
 311 364 313 360 316 357 c 0
 320 353 324 352 329 352 c 0
 333 352 337 353 341 357 c 0
 344 360 346 364 346 368 c 0
 346 373 344 378 341 381 c 0
329 261 m 0
 324 261 320 259 316 256 c 0
 313 252 311 248 311 243 c 0
 311 239 313 235 316 231 c 0
 320 228 324 226 329 226 c 0
 333 226 337 228 341 231 c 0
 344 235 346 239 346 243 c 0
 346 248 344 252 341 256 c 0
 337 259 333 261 329 261 c 0
386 123 m 0
 373 123 362 118 353 109 c 0
 345 101 340 90 340 78 c 0
 340 66 345 55 353 47 c 0
 362 38 373 33 386 33 c 0
 398 33 408 38 417 47 c 0
 426 55 430 66 430 78 c 0
 430 90 426 101 417 109 c 0
 408 118 398 123 386 123 c 0
359 324 m 0
 355 324 351 322 347 319 c 0
 344 316 342 311 342 306 c 0
 342 301 344 297 347 294 c 0
 351 290 355 289 359 289 c 0
 364 289 368 290 372 294 c 0
 375 297 377 301 377 306 c 0
 377 311 375 316 372 319 c 0
 368 322 364 324 359 324 c 0
401 381 m 0
 397 384 393 386 389 386 c 0
 384 386 380 384 376 381 c 0
 373 378 371 373 371 368 c 0
 371 364 373 360 376 357 c 0
 380 353 384 352 389 352 c 0
 393 352 397 353 401 357 c 0
 404 360 406 364 406 368 c 0
 406 373 404 378 401 381 c 0
EndSplineSet
EndChar

StartChar: e1
Encoding: 10 68 9
Width: 512
LayerCount: 2
Fore
SplineSet
256 495 m 0
 150 495 64 459 64 415 c 2
 64 96 l 2
 65 52 151 17 256 17 c 0
 361 17 447 52 448 96 c 2
 448 415 l 2
 448 459 362 495 256 495 c 0
256 480 m 0
 342 480 429 451 429 416 c 0
 429 380 342 351 256 351 c 0
 170 351 84 380 84 416 c 0
 84 451 170 480 256 480 c 0
256 335 m 0
 336 335 405 356 434 385 c 1
 434 296 l 1
 418 276 375 243 255 241 c 1
 132 245 91 277 78 297 c 1
 78 385 l 1
 107 356 176 335 256 335 c 0
78 273 m 1
 96 257 152 228 254 226 c 0
 361 225 415 258 434 273 c 1
 434 193 l 1
 418 173 375 140 255 138 c 1
 132 142 91 174 78 194 c 1
 78 273 l 1
256 31 m 1
 96 36 79 93 78 97 c 2
 78 170 l 1
 96 154 152 125 254 123 c 0
 361 122 415 156 434 170 c 1
 434 97 l 1
 434 97 431 38 256 31 c 1
EndSplineSet
EndChar

StartChar: f
Encoding: 11 102 10
Width: 512
LayerCount: 2
Fore
SplineSet
75 146 m 1
 70 148 67 153 67 161 c 2
 67 478 l 2
 67 489 72 495 81 495 c 2
 238 495 l 2
 246 495 250 490 250 481 c 2
 250 158 l 1
 91 158 l 2
 83 158 77 154 75 146 c 1
409 129 m 0
 413 125 415 120 415 114 c 2
 415 38 l 2
 415 32 413 27 409 23 c 0
 405 19 400 17 394 17 c 2
 111 17 l 2
 106 17 101 19 97 23 c 0
 94 27 92 32 92 38 c 2
 92 114 l 2
 92 120 94 125 97 129 c 0
 101 133 106 135 111 135 c 2
 394 135 l 2
 400 135 405 133 409 129 c 0
93 432 m 0
 93 426 96 422 103 422 c 2
 216 422 l 2
 222 422 225 426 225 432 c 0
 225 439 222 443 216 443 c 2
 103 443 l 2
 96 443 93 439 93 432 c 0
93 384 m 0
 93 377 96 374 103 374 c 2
 216 374 l 2
 222 374 225 377 225 384 c 0
 225 391 222 394 216 394 c 2
 103 394 l 2
 96 394 93 391 93 384 c 0
93 331 m 0
 93 324 96 320 103 320 c 2
 216 320 l 2
 222 320 225 324 225 331 c 0
 225 338 222 342 216 342 c 2
 103 342 l 2
 96 342 93 338 93 331 c 0
93 278 m 0
 93 272 96 268 103 268 c 2
 216 268 l 2
 222 268 225 272 225 278 c 0
 225 286 222 290 216 290 c 2
 103 290 l 2
 96 290 93 286 93 278 c 0
93 225 m 0
 93 218 96 215 103 215 c 2
 216 215 l 2
 222 215 225 218 225 225 c 0
 225 233 222 236 216 236 c 2
 103 236 l 2
 96 236 93 233 93 225 c 0
151 108 m 0
 140 108 135 102 135 92 c 0
 135 81 140 76 151 76 c 0
 161 76 166 81 166 92 c 0
 166 102 161 108 151 108 c 0
228 109 m 1
 206 109 l 1
 206 67 l 1
 228 67 l 1
 228 109 l 1
277 109 m 1
 254 109 l 1
 254 67 l 1
 277 67 l 1
 277 109 l 1
445 350 m 2
 445 308 l 2
 445 303 442 300 436 300 c 2
 283 300 l 2
 277 300 274 303 274 308 c 2
 274 350 l 2
 274 356 277 360 283 360 c 2
 436 360 l 2
 442 360 445 356 445 350 c 2
445 273 m 2
 445 231 l 2
 445 225 442 221 436 221 c 2
 283 221 l 2
 277 221 274 225 274 231 c 2
 274 273 l 2
 274 279 277 282 283 282 c 2
 436 282 l 2
 442 282 445 279 445 273 c 2
445 194 m 2
 445 149 l 2
 445 142 442 139 436 139 c 2
 431 139 l 1
 429 152 422 158 410 158 c 2
 274 158 l 1
 274 194 l 2
 274 201 277 204 283 204 c 2
 436 204 l 2
 442 204 445 201 445 194 c 2
312 339 m 0
 312 342 310 344 307 344 c 2
 294 344 l 2
 291 344 290 342 290 339 c 0
 290 337 291 335 294 335 c 2
 307 335 l 2
 310 335 312 337 312 339 c 0
312 263 m 0
 312 266 310 267 307 267 c 2
 294 267 l 2
 291 267 290 266 290 263 c 0
 290 259 291 258 294 258 c 2
 307 258 l 2
 310 258 312 259 312 263 c 0
312 184 m 0
 312 187 310 188 307 188 c 2
 294 188 l 2
 291 188 290 187 290 184 c 0
 290 181 291 179 294 179 c 2
 307 179 l 2
 310 179 312 181 312 184 c 0
326 109 m 1
 304 109 l 1
 304 67 l 1
 326 67 l 1
 326 109 l 1
375 109 m 1
 353 109 l 1
 353 67 l 1
 375 67 l 1
 375 109 l 1
EndSplineSet
EndChar

StartChar: g
Encoding: 12 103 11
Width: 512
LayerCount: 2
Fore
SplineSet
428 300 m 0
 433 294 436 288 436 280 c 2
 436 45 l 2
 436 37 433 31 428 25 c 0
 422 20 416 17 408 17 c 2
 104 17 l 2
 96 17 90 20 84 25 c 0
 79 31 76 37 76 45 c 2
 76 281 l 2
 76 289 79 295 84 301 c 0
 90 306 96 309 104 309 c 2
 114 309 l 1
 114 397 l 2
 114 424 123 447 142 466 c 0
 161 485 185 495 212 495 c 2
 300 495 l 2
 327 495 351 485 370 466 c 0
 389 447 398 424 398 397 c 2
 398 309 l 1
 408 309 l 2
 416 309 422 306 428 300 c 0
354 309 m 1
 354 384 l 2
 354 403 347 419 334 432 c 0
 321 445 305 452 286 452 c 2
 226 452 l 2
 207 452 191 445 178 432 c 0
 165 419 158 403 158 384 c 2
 158 309 l 1
 354 309 l 1
269 151 m 1
 284 157 292 168 292 183 c 0
 292 193 288 201 281 208 c 0
 274 215 266 218 256 218 c 0
 246 218 238 215 231 208 c 0
 224 201 220 193 220 183 c 0
 220 169 227 159 241 152 c 1
 228 86 l 1
 282 86 l 1
 269 151 l 1
EndSplineSet
EndChar

StartChar: g1
Encoding: 13 69 12
Width: 512
LayerCount: 2
Fore
SplineSet
60 438 m 1
 60 110 l 1
 60 110 203 120 249 74 c 1
 249 387 l 1
 249 387 233 438 60 438 c 1
237 98 m 1
 187 133 73 124 73 124 c 1
 73 424 l 1
 223 424 237 383 237 383 c 1
 237 98 l 1
262 387 m 1
 262 74 l 1
 308 120 451 110 451 110 c 1
 451 438 l 1
 278 438 262 387 262 387 c 1
274 383 m 1
 274 383 288 424 439 424 c 1
 439 124 l 1
 439 124 325 133 274 98 c 1
 274 383 l 1
495 396 m 1
 495 74 l 1
 285 74 l 1
 285 74 340 94 386 94 c 2
 474 94 l 1
 474 396 l 1
 495 396 l 1
38 396 m 1
 38 94 l 1
 126 94 l 2
 172 94 228 74 228 74 c 1
 17 74 l 1
 17 396 l 1
 38 396 l 1
EndSplineSet
EndChar

StartChar: r
Encoding: 14 114 13
Width: 512
LayerCount: 2
Fore
SplineSet
392 444 m 1
 495 357 l 1
 392 270 l 1
 392 319 l 1
 318 319 l 1
 134 118 l 1
 17 118 l 1
 17 190 l 1
 104 190 l 1
 297 396 l 1
 392 396 l 1
 392 444 l 1
147 283 m 1
 192 330 l 1
 134 394 l 1
 17 394 l 1
 17 322 l 1
 104 322 l 1
 143 279 l 1
 147 283 l 1
495 155 m 1
 392 242 l 1
 392 193 l 1
 318 193 l 1
 281 233 l 1
 279 231 l 1
 235 183 l 1
 297 116 l 1
 392 116 l 1
 392 68 l 1
 495 155 l 1
EndSplineSet
EndChar

StartChar: p
Encoding: 15 112 14
Width: 512
LayerCount: 2
Fore
SplineSet
425 425 m 0
 378 472 322 495 256 495 c 0
 190 495 134 472 87 425 c 0
 40 378 17 322 17 256 c 0
 17 190 40 134 87 87 c 0
 134 40 190 17 256 17 c 0
 322 17 378 40 425 87 c 0
 472 134 495 190 495 256 c 0
 495 322 472 378 425 425 c 0
391 119 m 0
 353 81 308 63 256 65 c 0
 201 67 155 86 119 123 c 0
 83 159 65 203 65 256 c 0
 65 309 83 354 121 391 c 0
 158 429 203 447 256 447 c 0
 309 447 354 429 391 391 c 0
 429 354 447 309 447 256 c 0
 447 203 429 158 391 119 c 0
353 192 m 2
 284 227 l 1
 284 231 l 2
 284 241 281 249 274 256 c 0
 271 258 269 259 266 261 c 2
 266 388 l 2
 266 393 264 397 261 401 c 0
 257 404 253 406 248 406 c 0
 243 406 238 404 235 401 c 0
 231 397 229 393 229 388 c 2
 229 259 l 2
 227 258 226 257 224 256 c 0
 217 249 214 241 214 231 c 0
 214 221 217 212 224 206 c 0
 231 199 240 195 249 195 c 0
 254 195 259 196 263 198 c 2
 346 155 l 2
 351 154 355 155 360 158 c 0
 364 161 366 165 367 169 c 0
 368 174 367 179 364 183 c 0
 362 188 358 190 353 192 c 2
EndSplineSet
EndChar

StartChar: q
Encoding: 16 113 15
Width: 512
LayerCount: 2
Fore
SplineSet
17 144 m 1
 17 175 l 2
 17 179 18 183 18 186 c 0
 19 190 20 193 21 195 c 0
 22 198 24 200 27 202 c 0
 30 205 32 206 33 207 c 0
 35 209 38 210 41 212 c 0
 45 214 48 215 49 215 c 0
 50 216 53 217 57 218 c 0
 62 220 64 221 65 221 c 0
 81 224 93 229 101 236 c 0
 108 244 113 249 113 253 c 0
 114 256 114 259 113 262 c 0
 113 269 112 275 110 280 c 0
 109 284 106 288 103 291 c 0
 101 295 98 302 96 313 c 0
 94 324 93 339 93 357 c 0
 93 369 95 379 100 387 c 0
 105 395 111 400 119 403 c 0
 127 407 133 409 138 410 c 0
 143 410 148 411 152 411 c 2
 153 411 l 2
 183 411 202 400 210 377 c 1
 188 369 177 351 177 326 c 0
 177 294 179 270 185 254 c 0
 190 239 193 230 193 229 c 2
 193 222 l 2
 193 217 189 211 181 205 c 0
 173 198 161 193 146 189 c 0
 135 186 128 183 124 182 c 0
 120 180 115 176 109 170 c 0
 102 163 99 155 99 144 c 1
 17 144 l 1
255 368 m 2
 262 368 269 367 276 366 c 0
 283 365 291 360 301 351 c 0
 310 342 315 329 315 314 c 0
 315 296 314 281 312 270 c 0
 309 259 307 252 304 249 c 0
 301 245 299 242 297 237 c 0
 295 232 294 226 294 219 c 2
 294 211 l 2
 294 206 298 200 307 193 c 0
 315 187 328 181 344 178 c 2
 344 178 347 177 352 175 c 0
 356 174 360 172 361 172 c 0
 363 171 366 169 370 167 c 0
 374 165 377 164 379 162 c 0
 380 160 382 158 385 155 c 0
 387 152 389 149 390 145 c 0
 391 141 391 137 391 133 c 2
 391 101 l 1
 119 101 l 1
 119 133 l 2
 119 137 119 140 120 144 c 0
 121 147 122 150 123 152 c 0
 125 155 127 157 129 159 c 0
 132 162 134 163 135 165 c 2
 143 169 l 1
 143 169 149 172 151 172 c 0
 152 173 155 174 159 175 c 0
 163 177 166 178 166 178 c 2
 177 180 186 183 193 186 c 0
 200 190 205 193 207 197 c 0
 210 201 212 205 214 208 c 0
 215 211 216 214 215 216 c 0
 214 218 214 219 215 219 c 1
 215 226 214 232 212 237 c 0
 210 242 208 245 205 249 c 0
 202 252 200 259 198 270 c 0
 195 281 194 296 194 314 c 0
 194 326 197 336 202 344 c 0
 207 352 213 357 221 361 c 0
 229 364 235 366 240 367 c 0
 245 368 250 368 254 368 c 2
 255 368 l 2
495 144 m 1
 495 175 l 2
 495 179 494 183 494 187 c 0
 493 191 491 195 488 198 c 0
 486 200 484 203 483 205 c 0
 482 207 479 208 474 210 c 0
 470 212 467 213 466 214 c 0
 465 215 461 216 456 218 c 2
 448 221 l 2
 432 224 420 229 412 236 c 0
 404 244 399 249 399 253 c 0
 398 256 398 259 399 262 c 0
 399 269 400 275 402 280 c 0
 403 284 406 288 409 291 c 0
 411 295 414 302 416 313 c 0
 418 324 419 339 419 357 c 0
 419 369 417 379 412 387 c 0
 407 395 400 400 393 403 c 0
 385 407 379 409 374 410 c 0
 369 410 364 411 360 411 c 2
 359 411 l 2
 329 411 310 400 302 377 c 1
 324 369 335 352 335 326 c 0
 335 294 333 270 327 254 c 0
 322 239 319 230 319 229 c 2
 319 222 l 2
 319 217 323 212 331 205 c 0
 339 198 351 193 366 189 c 0
 377 186 384 183 388 182 c 0
 392 180 397 176 403 170 c 0
 410 163 413 155 413 144 c 1
 495 144 l 1
EndSplineSet
EndChar

StartChar: n
Encoding: 17 110 16
Width: 512
LayerCount: 2
Fore
SplineSet
256 490 m 2
 262 490 268 490 274 489 c 0
 281 488 290 486 301 483 c 0
 312 480 322 475 330 469 c 0
 338 462 346 453 352 440 c 0
 358 428 362 413 362 395 c 0
 362 363 360 338 356 318 c 0
 352 299 347 286 343 281 c 0
 338 276 334 269 330 260 c 0
 327 252 325 241 326 228 c 2
 326 214 l 2
 326 206 333 195 347 183 c 0
 361 171 383 162 411 155 c 0
 413 155 417 153 424 151 c 0
 431 149 436 148 438 147 c 0
 441 146 445 144 452 141 c 0
 458 138 463 135 466 133 c 0
 469 131 472 129 477 125 c 0
 482 121 485 116 487 112 c 0
 489 108 491 103 492 97 c 0
 494 91 495 84 495 77 c 2
 495 22 l 1
 17 22 l 1
 17 77 l 2
 17 84 18 91 20 97 c 0
 21 103 23 108 25 112 c 0
 27 116 30 121 35 125 c 0
 40 129 43 132 46 134 c 0
 49 136 53 138 59 141 c 0
 66 144 70 146 72 146 c 0
 75 147 79 149 87 151 c 0
 94 153 98 155 100 155 c 0
 118 159 133 165 145 171 c 0
 158 178 167 184 172 190 c 0
 177 196 181 202 184 209 c 0
 187 215 188 220 187 223 c 0
 186 226 186 227 186 228 c 0
 187 241 185 252 181 260 c 0
 177 269 173 276 168 281 c 0
 164 286 159 299 155 318 c 0
 151 338 149 364 149 395 c 0
 149 413 153 428 159 440 c 0
 165 453 173 462 181 469 c 0
 189 475 199 480 210 483 c 0
 221 486 230 488 237 489 c 0
 243 490 249 490 255 490 c 2
 256 490 l 2
EndSplineSet
EndChar

StartChar: m
Encoding: 18 109 17
Width: 512
LayerCount: 2
Fore
SplineSet
495 125 m 1
 17 125 l 1
 256 387 l 1
 495 125 l 1
EndSplineSet
EndChar

StartChar: l
Encoding: 19 108 18
Width: 512
LayerCount: 2
Fore
SplineSet
17 387 m 1
 495 387 l 1
 256 125 l 1
 17 387 l 1
EndSplineSet
EndChar

StartChar: k
Encoding: 20 107 19
Width: 512
LayerCount: 2
Fore
SplineSet
435 299 m 1
 77 299 l 1
 256 495 l 1
 435 299 l 1
77 213 m 1
 435 213 l 1
 256 17 l 1
 77 213 l 1
EndSplineSet
EndChar

StartChar: F
Encoding: 21 70 20
Width: 512
LayerCount: 2
Fore
SplineSet
50 495 m 1
 50 17 l 1
 462 17 l 1
 462 495 l 1
 50 495 l 1
240 33 m 1
 66 33 l 1
 66 479 l 1
 240 479 l 1
 240 33 l 1
447 33 m 1
 273 33 l 1
 273 479 l 1
 447 479 l 1
 447 33 l 1
111 455 m 1
 195 455 l 1
 195 442 l 1
 111 442 l 1
 111 455 l 1
317 455 m 1
 401 455 l 1
 401 442 l 1
 317 442 l 1
 317 455 l 1
111 383 m 1
 195 383 l 1
 195 370 l 1
 111 370 l 1
 111 383 l 1
317 383 m 1
 401 383 l 1
 401 370 l 1
 317 370 l 1
 317 383 l 1
111 338 m 1
 111 255 l 1
 195 255 l 1
 195 338 l 1
 111 338 l 1
180 270 m 1
 127 270 l 1
 127 323 l 1
 180 323 l 1
 180 270 l 1
317 338 m 1
 317 255 l 1
 401 255 l 1
 401 338 l 1
 317 338 l 1
385 270 m 1
 332 270 l 1
 332 323 l 1
 385 323 l 1
 385 270 l 1
EndSplineSet
EndChar

StartChar: j
Encoding: 22 106 21
Width: 512
LayerCount: 2
Fore
SplineSet
258 376 m 1
 243 372 231 365 220 355 c 0
 218 357 216 358 212 358 c 2
 78 358 l 2
 75 358 72 356 70 354 c 0
 68 351 66 348 66 345 c 0
 66 342 68 339 70 336 c 0
 73 333 75 331 78 331 c 2
 206 331 l 1
 202 323 201 314 201 303 c 0
 201 296 201 290 202 286 c 1
 78 286 l 2
 70 286 66 281 66 272 c 0
 66 269 68 266 70 264 c 0
 72 261 75 260 78 260 c 2
 204 260 l 1
 205 245 209 230 214 213 c 1
 214 214 213 214 212 214 c 2
 78 214 l 2
 70 214 66 210 66 201 c 0
 66 198 68 195 70 192 c 0
 72 190 75 188 78 188 c 2
 212 188 l 2
 218 188 221 191 223 196 c 1
 226 188 228 181 227 173 c 2
 227 169 l 2
 228 166 225 161 220 156 c 0
 214 151 206 146 194 142 c 1
 78 142 l 2
 75 142 72 141 70 138 c 0
 68 135 66 132 66 129 c 0
 66 120 70 116 78 116 c 2
 127 116 l 1
 112 105 104 90 104 70 c 2
 104 45 l 1
 50 45 l 2
 45 45 41 47 38 51 c 0
 34 56 33 61 33 66 c 2
 33 475 l 2
 33 480 34 485 37 489 c 0
 41 493 45 495 50 495 c 2
 246 495 l 2
 254 495 258 489 258 478 c 2
 258 376 l 1
224 417 m 0
 224 426 220 430 212 430 c 2
 78 430 l 2
 70 430 66 426 66 417 c 0
 66 413 68 410 70 408 c 0
 72 405 75 404 78 404 c 2
 212 404 l 2
 220 404 224 408 224 417 c 0
304 360 m 1
 310 360 316 359 322 358 c 0
 328 357 337 355 347 351 c 0
 357 347 366 340 372 329 c 0
 379 318 382 305 382 290 c 0
 382 267 380 248 377 234 c 0
 374 220 371 211 368 207 c 0
 364 203 361 198 359 192 c 0
 356 186 355 178 355 168 c 2
 355 158 l 2
 355 152 360 144 371 135 c 0
 381 126 397 119 418 115 c 2
 418 115 421 114 426 112 c 0
 431 111 434 110 435 109 c 0
 437 108 440 107 444 106 c 0
 448 104 451 103 453 101 c 0
 455 100 458 98 462 96 c 0
 465 94 468 91 469 89 c 2
 475 80 l 1
 475 80 478 73 478 69 c 0
 479 65 479 61 479 57 c 2
 479 17 l 1
 129 17 l 1
 129 57 l 2
 129 61 130 64 130 68 c 0
 131 72 132 76 133 79 c 0
 134 81 135 84 138 87 c 0
 140 89 142 91 143 93 c 0
 145 95 147 97 151 99 c 0
 154 101 156 103 158 104 c 0
 159 105 162 106 166 107 c 0
 170 108 172 109 174 110 c 0
 175 111 178 112 182 113 c 0
 186 114 189 115 189 115 c 2
 203 117 214 121 224 126 c 0
 233 131 239 135 243 140 c 0
 246 144 249 149 252 153 c 0
 254 158 255 161 254 164 c 0
 253 166 252 167 253 168 c 0
 253 178 252 186 249 192 c 0
 247 198 244 203 240 207 c 0
 236 211 233 220 230 234 c 0
 227 248 226 267 226 290 c 0
 226 305 229 318 236 329 c 0
 242 340 250 347 260 351 c 0
 270 355 279 357 285 358 c 0
 291 359 298 359 303 359 c 2
 304 359 l 1
 304 360 l 1
EndSplineSet
EndChar

StartChar: i1
Encoding: 23 71 22
Width: 512
LayerCount: 2
Fore
SplineSet
256 495 m 0
 124 495 17 388 17 256 c 0
 17 124 124 17 256 17 c 0
 388 17 495 124 495 256 c 0
 495 388 388 495 256 495 c 0
256 35 m 0
 134 35 36 134 36 256 c 0
 36 378 134 477 256 477 c 0
 378 477 476 378 476 256 c 0
 476 134 378 35 256 35 c 0
423 332 m 1
 282 281 l 1
 275 287 266 291 256 291 c 0
 234 291 217 273 217 252 c 0
 217 230 234 213 256 213 c 0
 278 213 295 230 295 252 c 0
 295 254 295 255 294 257 c 2
 423 332 l 1
256 228 m 0
 243 228 233 239 233 252 c 0
 233 264 243 275 256 275 c 0
 269 275 279 264 279 252 c 0
 279 239 269 228 256 228 c 0
459 256 m 1
 420 256 l 1
 420 241 l 1
 459 241 l 1
 459 256 l 1
 459 256 l 1
401 400 m 1
 372 369 l 1
 382 359 l 1
 411 389 l 1
 407 392 404 396 401 400 c 1
263 459 m 1
 256 459 l 1
 249 459 l 1
 249 418 l 1
 263 418 l 1
 263 459 l 1
100 385 m 1
 127 357 l 1
 138 367 l 1
 110 396 l 1
 107 392 104 389 100 385 c 1
93 256 m 1
 53 256 l 1
 53 256 l 1
 53 251 54 246 54 241 c 1
 93 241 l 1
 93 256 l 1
EndSplineSet
EndChar

StartChar: i
Encoding: 24 105 23
Width: 512
LayerCount: 2
Fore
SplineSet
454 398 m 0
 455 387 454 371 452 351 c 0
 449 331 446 310 442 289 c 0
 439 267 432 243 422 218 c 0
 411 192 400 168 387 144 c 0
 374 121 356 98 334 76 c 0
 312 54 287 35 259 20 c 1
 259 17 l 2
 258 18 257 18 256 18 c 0
 255 18 254 18 253 17 c 2
 253 20 l 1
 225 35 200 54 178 76 c 0
 156 98 138 121 125 144 c 0
 112 166 101 190 90 215 c 0
 80 241 73 264 70 285 c 0
 66 307 63 327 60 347 c 0
 58 367 57 382 58 393 c 0
 59 404 60 412 59 417 c 0
 59 420 63 421 70 421 c 0
 77 421 87 422 99 423 c 0
 112 424 123 426 132 431 c 0
 140 434 154 442 173 453 c 0
 192 464 209 474 225 482 c 0
 240 491 250 495 256 495 c 0
 262 495 272 491 288 482 c 0
 303 474 321 464 340 452 c 0
 359 441 373 433 381 430 c 0
 390 425 401 423 414 423 c 0
 427 423 436 424 441 425 c 0
 447 427 450 426 453 423 c 0
 452 418 453 410 454 398 c 0
322 129 m 0
 340 149 354 169 364 189 c 0
 373 209 382 230 389 252 c 0
 396 274 400 293 401 310 c 0
 402 327 403 342 405 355 c 0
 406 368 406 376 404 378 c 0
 404 380 402 381 396 381 c 0
 390 380 383 380 374 381 c 0
 364 382 356 384 348 387 c 0
 342 390 332 396 318 404 c 0
 304 412 291 420 280 426 c 0
 268 432 260 435 256 435 c 0
 252 435 244 432 233 426 c 0
 221 420 209 413 195 405 c 0
 181 396 171 391 165 388 c 0
 158 384 149 383 139 382 c 0
 129 382 121 382 117 383 c 0
 113 384 109 383 108 380 c 0
 106 378 106 370 107 357 c 0
 109 344 110 329 111 312 c 0
 112 295 116 276 123 254 c 0
 130 232 139 210 148 190 c 0
 158 170 172 150 190 130 c 0
 209 109 230 92 254 79 c 1
 254 77 l 1
 255 77 l 1
 256 78 l 1
 257 77 l 1
 258 77 l 1
 258 79 l 1
 282 92 303 109 322 129 c 0
319 185 m 0
 335 208 346 231 352 255 c 0
 357 279 360 297 361 311 c 0
 363 324 363 335 362 344 c 0
 361 346 359 346 356 346 c 0
 353 345 348 345 341 345 c 0
 334 345 328 347 322 349 c 0
 318 351 311 355 300 361 c 0
 290 368 281 373 273 377 c 0
 265 382 259 384 256 384 c 0
 253 384 247 382 240 377 c 0
 232 373 223 368 213 362 c 0
 203 356 196 352 191 350 c 0
 186 348 180 346 172 346 c 0
 165 346 160 346 157 347 c 0
 153 347 151 347 150 345 c 0
 149 337 149 326 151 312 c 0
 152 298 155 279 160 256 c 0
 166 232 177 208 193 185 c 0
 209 161 230 143 255 129 c 1
 255 128 l 1
 257 128 l 1
 257 129 l 1
 282 143 303 161 319 185 c 0
EndSplineSet
EndChar

StartChar: H
Encoding: 25 72 24
Width: 512
LayerCount: 2
Fore
SplineSet
420 304 m 1
 409 361 361 404 303 404 c 0
 261 404 224 381 203 347 c 1
 198 347 l 2
 147 347 105 315 97 274 c 1
 53 272 17 235 17 191 c 0
 17 145 54 108 100 108 c 2
 400 108 l 1
 401 108 l 2
 453 108 495 152 495 207 c 0
 495 255 463 295 420 304 c 1
394 121 m 2
 104 121 l 2
 64 121 32 153 32 193 c 0
 32 231 63 263 108 264 c 1
 115 308 160 333 204 333 c 0
 205 333 207 333 208 332 c 1
 226 362 262 389 298 389 c 0
 359 391 396 344 407 296 c 1
 451 287 480 248 480 207 c 0
 480 160 440 120 394 121 c 2
EndSplineSet
EndChar

StartChar: s
Encoding: 26 115 25
Width: 512
LayerCount: 2
Fore
SplineSet
232 107 m 0
 206 107 183 110 164 115 c 0
 145 120 131 125 122 131 c 0
 114 137 107 143 102 149 c 0
 97 155 95 160 94 164 c 2
 93 170 l 1
 93 224 l 1
 99 189 145 170 232 165 c 0
 258 167 281 170 300 174 c 0
 320 179 334 184 343 189 c 0
 352 195 360 200 365 205 c 0
 370 211 373 215 374 219 c 2
 375 224 l 1
 375 170 l 2
 375 168 375 166 374 164 c 0
 374 161 371 156 366 149 c 0
 360 142 353 136 345 130 c 0
 336 125 321 120 302 115 c 0
 282 110 259 107 232 107 c 0
375 301 m 2
 375 316 362 327 336 336 c 0
 309 345 275 349 235 349 c 0
 194 349 161 345 135 336 c 0
 110 328 95 316 93 300 c 2
 93 298 l 1
 93 299 l 1
 93 262 l 1
 94 256 l 2
 94 251 96 246 101 239 c 0
 106 233 113 227 122 220 c 0
 130 214 144 208 163 203 c 0
 182 198 205 195 231 194 c 0
 258 195 281 198 301 203 c 0
 320 209 335 214 344 220 c 0
 353 226 360 233 366 240 c 0
 371 248 374 253 374 256 c 0
 375 259 375 261 375 263 c 2
 375 302 l 1
 375 301 l 2
151 320 m 0
 174 325 202 328 235 328 c 0
 268 328 296 325 319 320 c 0
 343 314 354 308 354 301 c 0
 354 293 343 286 319 280 c 0
 296 275 268 272 235 272 c 0
 202 272 174 275 151 280 c 0
 128 286 116 293 116 301 c 0
 116 308 128 314 151 320 c 0
17 439 m 1
 17 18 l 1
 437 18 l 1
 437 439 l 1
 17 439 l 1
409 48 m 1
 47 48 l 1
 47 410 l 1
 409 410 l 1
 409 48 l 1
75 494 m 1
 75 410 l 1
 104 410 l 1
 104 465 l 1
 466 465 l 1
 466 103 l 1
 409 103 l 1
 409 73 l 1
 495 73 l 1
 495 494 l 1
 75 494 l 1
EndSplineSet
EndChar

StartChar: t
Encoding: 27 116 26
Width: 512
LayerCount: 2
Fore
SplineSet
492 256 m 0
 488 251 472 234 443 205 c 1
 416 234 l 1
 387 205 l 1
 362 234 l 1
 335 205 l 1
 308 234 l 1
 272 199 l 1
 227 199 l 1
 217 182 203 169 185 159 c 0
 168 149 149 144 129 144 c 0
 98 144 72 155 50 177 c 0
 28 198 17 225 17 256 c 0
 17 287 28 314 50 335 c 0
 72 357 98 368 129 368 c 0
 174 368 207 349 228 310 c 1
 454 310 l 1
 492 270 l 2
 496 266 496 262 492 256 c 0
112 255 m 0
 112 264 109 271 104 277 c 0
 98 283 91 286 83 286 c 0
 74 286 67 283 61 277 c 0
 56 271 53 264 53 255 c 0
 53 247 56 240 61 234 c 0
 67 228 74 225 83 225 c 0
 91 225 98 228 104 234 c 0
 109 240 112 247 112 255 c 0
EndSplineSet
EndChar

StartChar: v
Encoding: 28 118 27
Width: 512
LayerCount: 2
Fore
SplineSet
182 97 m 1
 166 97 l 1
 161 147 l 1
 134 160 l 1
 89 128 l 1
 48 174 l 1
 85 210 l 1
 71 246 l 1
 17 250 l 1
 17 309 l 1
 71 314 l 1
 85 345 l 1
 48 386 l 1
 89 426 l 1
 134 395 l 1
 161 413 l 1
 166 458 l 1
 229 458 l 1
 234 413 l 1
 265 395 l 1
 301 426 l 1
 346 386 l 1
 321 353 l 1
 309 352 298 348 286 341 c 0
 274 334 267 322 264 305 c 1
 259 319 250 330 238 338 c 0
 226 347 212 351 197 351 c 0
 177 351 160 344 146 330 c 0
 132 315 125 298 125 278 c 0
 125 258 132 241 146 227 c 0
 160 214 177 207 197 207 c 0
 212 207 226 211 239 220 c 0
 251 228 260 240 265 253 c 1
 266 239 269 228 274 219 c 0
 280 211 283 202 285 192 c 2
 285 187 l 2
 286 184 284 180 281 174 c 0
 277 169 272 164 265 160 c 2
 245 152 l 2
 240 150 236 149 233 149 c 2
 226 147 l 2
 221 145 219 144 218 144 c 0
 217 143 214 142 211 141 c 0
 207 140 204 138 203 137 c 0
 202 136 200 134 197 132 c 0
 194 130 192 128 191 126 c 0
 190 124 188 122 187 120 c 0
 185 117 184 114 183 111 c 0
 183 108 182 104 182 100 c 2
 182 97 l 1
351 337 m 2
 358 337 365 337 373 335 c 0
 381 334 390 329 400 319 c 0
 410 309 415 296 415 279 c 0
 415 247 411 224 404 211 c 0
 396 199 393 188 393 179 c 2
 393 171 l 2
 393 165 398 159 406 152 c 0
 414 144 427 139 445 135 c 2
 445 135 448 134 452 133 c 0
 457 131 460 130 461 130 c 0
 462 129 465 128 469 126 c 0
 473 124 476 123 478 122 c 2
 484 116 l 2
 487 113 489 111 490 108 c 0
 491 105 493 102 494 99 c 0
 494 95 495 91 495 87 c 2
 495 54 l 1
 207 54 l 1
 207 87 l 2
 207 92 207 96 208 100 c 0
 209 104 211 108 213 111 c 0
 216 114 218 117 220 119 c 0
 221 121 224 123 229 124 c 0
 233 126 236 128 238 128 c 0
 239 129 242 130 247 132 c 0
 252 134 255 135 256 135 c 0
 273 139 286 145 295 153 c 0
 304 160 308 166 309 169 c 0
 309 173 309 176 308 179 c 0
 308 186 307 193 305 198 c 0
 303 203 301 207 298 211 c 0
 295 214 293 221 290 233 c 0
 288 244 287 260 287 279 c 0
 287 296 292 309 302 319 c 0
 312 329 321 334 328 335 c 0
 336 337 343 337 350 337 c 2
 351 337 l 2
EndSplineSet
EndChar

StartChar: S
Encoding: 29 117 28
Width: 512
LayerCount: 2
Fore
SplineSet
425 425 m 0
 378 472 322 495 256 495 c 0
 190 495 134 472 87 425 c 0
 40 378 17 322 17 256 c 0
 17 190 40 134 87 87 c 0
 134 40 190 17 256 17 c 0
 322 17 378 40 425 87 c 0
 472 134 495 190 495 256 c 0
 495 322 472 378 425 425 c 0
386 398 m 1
 395 410 l 1
 419 395 438 370 451 338 c 1
 417 356 l 1
 400 342 l 1
 386 349 l 1
 390 372 l 1
 386 398 l 1
265 467 m 1
 291 462 306 459 312 455 c 1
 292 435 l 1
 238 433 l 1
 205 453 l 1
 223 462 243 467 265 467 c 1
361 136 m 1
 354 121 351 112 351 109 c 2
 350 71 l 1
 344 65 340 62 339 61 c 0
 331 55 323 53 316 53 c 0
 315 53 309 60 298 75 c 0
 287 90 281 99 281 102 c 0
 277 108 275 120 273 139 c 0
 273 143 274 152 278 166 c 0
 281 180 283 189 283 192 c 2
 211 193 l 2
 208 193 204 195 199 197 c 0
 193 199 185 205 174 215 c 0
 163 225 154 238 149 253 c 2
 155 224 l 1
 146 232 141 246 141 265 c 0
 140 268 138 271 136 276 c 0
 133 280 131 284 129 288 c 0
 127 291 126 293 126 294 c 0
 126 295 127 302 130 316 c 0
 134 330 136 338 138 340 c 0
 139 342 138 347 136 354 c 0
 136 355 135 356 135 357 c 0
 134 359 134 360 133 361 c 0
 132 362 131 364 130 366 c 0
 128 367 126 369 122 370 c 0
 119 372 115 373 111 374 c 2
 100 365 l 1
 89 379 l 1
 107 403 l 2
 108 403 108 403 109 404 c 0
 110 404 112 405 116 406 c 2
 125 409 l 1
 125 409 132 411 136 412 c 0
 140 413 145 414 148 416 c 2
 160 419 l 2
 165 420 168 421 171 422 c 0
 174 422 177 423 179 423 c 2
 184 423 l 1
 184 423 189 422 196 418 c 0
 202 415 208 413 213 412 c 0
 217 411 224 413 231 417 c 1
 261 391 l 2
 274 382 284 370 293 355 c 0
 298 347 301 344 302 344 c 1
 284 324 275 311 274 305 c 0
 265 272 262 254 263 250 c 2
 270 229 l 1
 266 227 l 2
 265 229 265 232 263 236 c 0
 262 240 259 244 254 249 c 0
 249 254 244 255 237 253 c 0
 227 250 220 245 216 237 c 0
 215 228 215 221 217 218 c 0
 218 216 228 214 245 211 c 0
 262 208 273 206 278 206 c 0
 281 207 290 207 305 205 c 0
 320 204 329 202 333 199 c 2
 361 170 l 1
 361 136 l 1
441 214 m 2
 438 215 433 216 428 218 c 0
 422 221 414 227 403 237 c 0
 391 247 383 258 377 272 c 1
 377 291 l 1
 412 326 l 1
 443 319 461 312 465 307 c 0
 470 301 472 285 472 258 c 0
 473 232 468 208 457 187 c 1
 441 214 l 2
EndSplineSet
EndChar

StartChar: w
Encoding: 30 119 29
Width: 512
LayerCount: 2
Fore
SplineSet
238 106 m 1
 17 106 l 1
 17 151 l 2
 17 156 18 161 19 166 c 0
 19 170 21 174 23 178 c 2
 29 187 l 2
 30 190 33 193 37 195 c 0
 41 198 44 200 46 202 c 0
 48 203 51 205 56 207 c 0
 61 209 64 210 65 210 c 0
 67 210 70 212 76 213 c 0
 81 215 84 216 85 216 c 0
 100 220 112 224 123 229 c 0
 133 235 140 240 144 245 c 0
 148 250 151 255 154 260 c 0
 156 265 157 268 156 271 c 0
 155 273 155 275 156 276 c 0
 156 286 155 295 152 302 c 0
 149 309 145 314 141 319 c 0
 137 323 134 333 131 349 c 0
 128 365 126 386 126 412 c 0
 126 429 130 444 137 456 c 0
 144 468 153 476 164 480 c 0
 176 485 185 487 192 489 c 0
 199 490 206 491 212 491 c 2
 213 491 l 2
 220 491 227 490 234 489 c 0
 241 487 250 485 262 480 c 0
 273 476 282 468 289 456 c 0
 296 444 300 429 300 412 c 0
 300 386 298 365 295 349 c 0
 292 333 288 323 285 319 c 0
 281 314 277 309 274 302 c 0
 271 295 270 286 270 276 c 2
 269 272 l 2
 269 269 270 266 272 261 c 0
 273 257 276 252 279 248 c 1
 250 217 235 181 235 138 c 0
 235 128 236 117 238 106 c 1
465 119 m 1
 454 95 l 1
 475 72 l 1
 445 42 l 1
 421 62 l 1
 400 54 l 1
 397 21 l 1
 356 21 l 1
 353 54 l 1
 335 62 l 1
 306 42 l 1
 280 72 l 1
 303 95 l 1
 294 119 l 1
 259 122 l 1
 259 160 l 1
 294 163 l 1
 303 184 l 1
 280 211 l 1
 306 237 l 1
 335 216 l 1
 353 229 l 1
 356 257 l 1
 397 257 l 1
 400 229 l 1
 421 216 l 1
 445 237 l 1
 475 211 l 1
 454 184 l 1
 465 163 l 1
 495 160 l 1
 495 122 l 1
 465 119 l 1
410 107 m 0
 420 116 424 127 424 140 c 0
 424 153 420 165 410 174 c 0
 401 183 390 188 377 188 c 0
 364 188 353 183 343 174 c 0
 334 165 330 153 330 140 c 0
 330 127 334 116 343 107 c 0
 353 98 364 93 377 93 c 0
 390 93 401 98 410 107 c 0
EndSplineSet
EndChar

StartChar: x
Encoding: 31 120 30
Width: 512
LayerCount: 2
Fore
SplineSet
39 123 m 1
 30 123 l 2
 21 123 17 128 17 138 c 2
 17 443 l 2
 17 454 21 459 30 459 c 2
 180 459 l 2
 189 459 193 455 193 445 c 2
 193 345 l 1
 182 341 171 336 162 330 c 0
 161 330 160 331 159 331 c 2
 51 331 l 2
 44 331 41 327 41 320 c 0
 41 314 44 310 51 310 c 2
 138 310 l 1
 130 302 124 294 120 285 c 1
 51 285 l 2
 44 285 41 281 41 275 c 0
 41 268 44 264 51 264 c 2
 110 264 l 1
 107 253 104 245 103 239 c 1
 51 239 l 2
 44 239 41 236 41 229 c 0
 41 222 44 219 51 219 c 2
 96 219 l 1
 83 213 72 204 62 192 c 1
 51 192 l 2
 44 192 41 189 41 182 c 0
 41 178 44 175 48 173 c 1
 40 157 38 141 39 124 c 2
 39 123 l 1
41 409 m 0
 41 402 44 399 51 399 c 2
 159 399 l 2
 165 399 168 402 168 409 c 0
 168 415 165 418 159 418 c 2
 51 418 l 2
 44 418 41 415 41 409 c 0
41 366 m 0
 41 359 44 356 51 356 c 2
 159 356 l 2
 165 356 168 359 168 366 c 0
 168 373 165 376 159 376 c 2
 51 376 l 2
 44 376 41 373 41 366 c 0
432 221 m 0
 454 202 465 179 465 152 c 0
 465 126 454 102 432 82 c 0
 411 62 386 53 359 53 c 2
 142 53 l 2
 120 53 102 60 86 76 c 0
 71 91 63 110 63 132 c 0
 63 150 68 166 80 180 c 0
 91 194 105 203 123 207 c 1
 123 210 l 2
 123 243 134 270 157 294 c 0
 180 317 208 329 240 329 c 0
 266 329 289 321 309 307 c 0
 329 292 343 273 352 249 c 1
 359 249 l 2
 386 249 411 240 432 221 c 0
495 387 m 1
 495 342 l 1
 494 337 l 2
 493 334 491 330 487 325 c 0
 482 320 476 315 468 311 c 0
 461 306 448 302 431 298 c 0
 415 293 395 291 373 291 c 2
 363 291 l 1
 354 291 l 1
 335 327 302 347 255 350 c 1
 255 383 l 1
 261 412 301 427 375 427 c 0
 408 427 436 423 459 415 c 0
 482 407 494 397 495 385 c 2
 495 387 l 1
447 366 m 0
 467 370 477 376 477 383 c 0
 477 390 467 396 447 401 c 0
 427 406 403 408 375 408 c 0
 348 408 324 406 305 401 c 0
 285 396 275 390 275 383 c 0
 275 376 285 370 305 366 c 0
 324 361 348 359 375 359 c 0
 403 359 427 361 447 366 c 0
432 284 m 0
 448 288 460 292 468 296 c 0
 475 300 481 305 486 311 c 0
 491 317 493 321 494 323 c 0
 495 325 495 327 495 328 c 2
 495 277 l 1
 493 270 l 2
 492 266 489 260 481 253 c 0
 474 246 464 239 452 235 c 1
 430 258 403 270 373 270 c 0
 369 270 366 270 364 269 c 2
 361 277 l 1
 374 277 l 2
 396 277 415 279 432 284 c 0
495 257 m 2
 495 192 l 1
 485 178 l 1
 480 196 472 211 462 223 c 1
 483 233 494 244 495 257 c 2
EndSplineSet
EndChar

StartChar: z
Encoding: 32 122 31
Width: 512
LayerCount: 2
Fore
SplineSet
85 111 m 2
 85 60 l 2
 85 58 85 56 83 53 c 0
 82 52 80 52 77 52 c 2
 25 52 l 2
 22 52 20 52 20 53 c 0
 18 55 17 58 17 60 c 2
 17 111 l 2
 17 113 18 115 20 117 c 0
 20 119 22 120 25 120 c 2
 77 120 l 2
 79 120 81 119 83 117 c 0
 85 114 85 113 85 111 c 2
188 145 m 2
 188 60 l 2
 188 57 187 55 185 53 c 0
 184 52 183 52 179 52 c 2
 128 52 l 2
 125 52 123 52 122 53 c 0
 120 56 120 58 120 60 c 2
 120 145 l 2
 120 147 120 149 122 151 c 0
 124 153 126 153 128 153 c 2
 179 153 l 2
 182 153 184 153 185 151 c 0
 187 150 188 147 188 145 c 2
291 213 m 2
 291 60 l 2
 291 57 290 55 288 53 c 0
 286 52 284 52 281 52 c 2
 231 52 l 2
 228 52 226 52 224 53 c 0
 222 55 221 57 221 60 c 2
 221 213 l 2
 221 216 222 218 224 220 c 0
 226 221 228 221 231 221 c 2
 281 221 l 2
 284 221 286 221 288 220 c 0
 290 218 291 216 291 213 c 2
392 316 m 2
 392 60 l 2
 392 58 392 56 390 53 c 0
 389 52 387 52 384 52 c 2
 333 52 l 2
 329 52 328 52 327 53 c 0
 325 55 324 58 324 60 c 2
 324 316 l 2
 324 318 325 320 327 322 c 0
 328 324 330 324 333 324 c 2
 384 324 l 2
 386 324 388 323 390 322 c 0
 392 320 392 318 392 316 c 2
495 452 m 2
 495 60 l 2
 495 57 494 55 492 53 c 0
 492 52 490 52 487 52 c 2
 435 52 l 2
 432 52 430 52 429 53 c 0
 427 56 427 58 427 60 c 2
 427 452 l 2
 427 454 427 456 429 459 c 0
 430 460 432 460 435 460 c 2
 487 460 l 2
 490 460 492 460 492 459 c 0
 494 457 495 454 495 452 c 2
EndSplineSet
EndChar
